<svg version="1.1" viewBox="0.0 0.0 1300.0 400.0" fill="none" stroke="none" stroke-linecap="square" stroke-miterlimit="10" xmlns:xlink="http://www.w3.org/1999/xlink" xmlns="http://www.w3.org/2000/svg"><clipPath id="g33791e26da6_0_0.0"><path d="m0 0l1300.0 0l0 400.0l-1300.0 0l0 -400.0z" clip-rule="nonzero"/></clipPath><g clip-path="url(#g33791e26da6_0_0.0)"><path fill="#000000" fill-opacity="0.0" d="m0 0l1300.0 0l0 400.0l-1300.0 0z" fill-rule="evenodd"/><path fill="#000000" fill-opacity="0.0" d="m0 0l1300.0 0l0 400.0l-1300.0 0z" fill-rule="evenodd"/><path fill="#ffffff" d="m116.14154 247.46875l-3.203125 -5.875q20.265625 -24.53125 33.59375 -37.328125q13.34375 -12.796875 22.9375 -17.859375q9.609375 -5.078125 18.140625 -5.078125q11.1875 0 22.390625 6.9375q11.203125 6.9375 11.203125 17.609375q0 8.0 -5.34375 13.59375q-5.328125 5.59375 -14.390625 5.59375q-8.53125 0 -13.609375 -4.796875q-5.0625 -4.796875 -10.125 -9.328125q-5.0625 -4.53125 -13.59375 -4.53125q-4.265625 0 -9.609375 2.671875q-5.328125 2.65625 -14.125 11.453125q-8.796875 8.796875 -24.265625 26.9375zm-56.53125 144.53125q-1.609375 0 -1.609375 -3.203125q0 -3.203125 1.609375 -3.203125q19.203125 0 25.328125 -7.1875q6.140625 -7.203125 6.140625 -29.609375l0 -104.0q0 -17.0625 -4.0 -25.0625q-4.0 -8.0 -13.609375 -8.0q-5.328125 0 -12.265625 1.875q-6.9375 1.859375 -16.0 5.59375q-2.125 1.0625 -3.203125 -1.859375q-1.0625 -2.9375 0.53125 -4.015625l65.609375 -31.453125q2.125 -0.546875 3.203125 -0.546875q4.796875 0 10.65625 11.734375q5.875 11.734375 5.875 33.609375l0 122.125q0 14.9375 4.0 22.9375q4.0 8.0 14.921875 10.9375q10.9375 2.921875 31.734375 2.921875q1.609375 0 1.609375 3.203125q0 3.203125 -1.609375 3.203125q-13.859375 0 -31.46875 -0.53125q-17.59375 -0.53125 -37.328125 -0.53125q-14.390625 0 -27.46875 0.53125q-13.0625 0.53125 -22.65625 0.53125zm200.00116 0q-1.609375 0 -1.609375 -3.203125q0 -3.203125 1.609375 -3.203125q19.1875 0 25.578125 -7.1875q6.40625 -7.203125 6.40625 -29.609375l0 -98.125q0 -18.671875 -3.734375 -27.203125q-3.71875 -8.53125 -13.328125 -8.53125q-4.265625 0 -9.875 1.609375q-5.59375 1.59375 -13.04686 5.328125q-2.140625 0.53125 -3.484375 -2.40625q-1.328125 -2.9375 0.8125 -4.0l72.531235 -33.59375q1.59375 -0.546875 2.125 -0.546875q1.609375 0 3.46875 1.609375q1.875 1.59375 1.875 3.734375q0 4.796875 -0.53125 20.796875q-0.53125 16.0 -0.53125 42.125l0 99.203125q0 22.40625 6.125 29.609375q6.140625 7.1875 25.875 7.1875q1.59375 0 1.59375 3.203125q0 3.203125 -1.59375 3.203125q-9.609375 0 -22.671875 -0.53125q-13.0625 -0.53125 -27.46875 -0.53125q-14.40625 0 -27.203125 0.53125q-12.796875 0.53125 -22.921875 0.53125zm-20.281235 -256.0q-2.125 0 -3.203125 -4.265625q-1.0625 -4.265625 0 -8.265625q1.078125 -4.0 3.203125 -4.0l133.87498 0q2.65625 0 3.71875 4.0q1.078125 4.0 0 8.265625q-1.0625 4.265625 -3.71875 4.265625l-133.87498 0zm371.73297 50.140625q1.078125 0 1.078125 3.203125q0 3.1875 -1.078125 3.1875q-13.859375 0 -24.0 9.34375q-10.125 9.328125 -19.734375 32.265625l-66.125 157.32812q-1.0625 2.671875 -5.875 2.671875q-4.796875 0 -5.859375 -2.671875l-77.328125 -161.0625q-11.203125 -24.0 -18.671875 -30.9375q-7.46875 -6.9375 -18.140625 -6.9375q-1.59375 0 -1.59375 -3.1875q0 -3.203125 1.59375 -3.203125q8.0 0 18.140625 0.53125q10.140625 0.53125 22.9375 0.53125q19.734375 0 33.59375 -0.53125q13.875 -0.53125 25.59375 -0.53125q1.609375 0 1.609375 3.203125q0 3.1875 -1.609375 3.1875q-16.53125 0 -25.859375 4.0q-9.328125 4.0 -3.46875 16.796875l67.203125 137.60938l-19.203125 29.328125l61.328125 -147.73438q8.0 -20.265625 -1.0625 -30.125q-9.0625 -9.875 -35.203125 -9.875q-1.0625 0 -1.0625 -3.1875q0 -3.203125 1.0625 -3.203125q12.8125 0 24.265625 0.53125q11.46875 0.53125 29.609375 0.53125q11.734375 0 19.46875 -0.53125q7.734375 -0.53125 18.390625 -0.53125zm123.20288 212.79688q-32.53125 0 -56.265625 -15.46875q-23.734375 -15.46875 -36.53125 -41.328125q-12.796875 -25.875 -12.796875 -55.734375q0 -27.734375 10.390625 -48.0q10.40625 -20.265625 27.46875 -33.328125q17.0625 -13.078125 37.328125 -19.46875q20.265625 -6.40625 40.0 -6.40625q33.078125 0 56.53125 16.0q23.46875 16.0 36.0 41.0625q12.546875 25.0625 12.546875 52.796875q0 33.609375 -16.0 58.40625q-16.0 24.796875 -41.875 38.140625q-25.859375 13.328125 -56.796875 13.328125zm15.46875 -10.140625q26.125 0 40.796875 -20.53125q14.671875 -20.53125 14.671875 -62.671875q0 -35.71875 -10.671875 -61.578125q-10.671875 -25.875 -28.546875 -40.0q-17.859375 -14.140625 -40.25 -14.140625q-26.140625 0 -40.28125 20.0q-14.125 20.0 -14.125 58.921875q0 33.609375 10.125 61.078125q10.140625 27.453125 27.734375 43.1875q17.609375 15.734375 40.546875 15.734375zm137.59534 3.203125q-1.0625 0 -1.0625 -3.203125q0 -3.203125 1.0625 -3.203125q19.734375 0 25.859375 -7.1875q6.140625 -7.203125 6.140625 -29.609375l0.53125 -274.125q0 -18.671875 -3.46875 -27.203125q-3.46875 -8.53125 -13.0625 -8.53125q-8.0 0 -22.9375 6.9375q-2.125 1.0625 -3.46875 -2.140625q-1.328125 -3.203125 0.28125 -3.734375l71.453125 -34.125q1.078125 -0.53125 2.140625 -0.53125q1.59375 0 3.984375 1.59375q2.40625 1.59375 2.40625 3.734375l0 338.125q0 21.875 5.859375 29.34375q5.875 7.453125 25.609375 7.453125q2.140625 0 2.140625 3.203125q0 3.203125 -2.140625 3.203125q-9.59375 0 -22.671875 -0.53125q-13.0625 -0.53125 -27.984375 -0.53125q-14.40625 0 -27.46875 0.53125q-13.0625 0.53125 -23.203125 0.53125zm243.19867 6.9375q-32.53125 0 -56.265625 -15.46875q-23.734375 -15.46875 -36.53125 -41.328125q-12.796875 -25.875 -12.796875 -55.734375q0 -27.734375 10.390625 -48.0q10.40625 -20.265625 27.46875 -33.328125q17.0625 -13.078125 37.328125 -19.46875q20.265625 -6.40625 40.0 -6.40625q33.078125 0 56.53125 16.0q23.46875 16.0 36.0 41.0625q12.546875 25.0625 12.546875 52.796875q0 33.609375 -16.0 58.40625q-16.0 24.796875 -41.875 38.140625q-25.859375 13.328125 -56.796875 13.328125zm15.46875 -10.140625q26.125 0 40.796875 -20.53125q14.671875 -20.53125 14.671875 -62.671875q0 -35.71875 -10.671875 -61.578125q-10.671875 -25.875 -28.546875 -40.0q-17.859375 -14.140625 -40.25 -14.140625q-26.140625 0 -40.28125 20.0q-14.125 20.0 -14.125 58.921875q0 33.609375 10.125 61.078125q10.140625 27.453125 27.734375 43.1875q17.609375 15.734375 40.546875 15.734375zm-77.875 -252.79688q-2.125 0 -3.203125 -4.265625q-1.0625 -4.265625 0 -8.265625q1.078125 -4.0 3.203125 -4.0l133.875 0q2.65625 0 3.71875 4.0q1.078125 4.0 0 8.265625q-1.0625 4.265625 -3.71875 4.265625l-133.875 0z" fill-rule="nonzero"/></g></svg>