<svg version="1.1" viewBox="0.0 0.0 400.0 400.0" fill="none" stroke="none" stroke-linecap="square" stroke-miterlimit="10" xmlns:xlink="http://www.w3.org/1999/xlink" xmlns="http://www.w3.org/2000/svg"><clipPath id="p.0"><path d="m0 0l400.0 0l0 400.0l-400.0 0l0 -400.0z" clip-rule="nonzero"/></clipPath><g clip-path="url(#p.0)"><path fill="#000000" fill-opacity="0.0" d="m0 0l400.0 0l0 400.0l-400.0 0z" fill-rule="evenodd"/><path fill="#000000" fill-opacity="0.0" d="m0 -40.0l400.0 0l0 400.0l-400.0 0z" fill-rule="evenodd"/><path fill="#000000" d="m195.73357 358.9375q-32.53125 0 -56.265625 -15.46875q-23.734375 -15.46875 -36.53125 -41.328125q-12.796875 -25.875 -12.796875 -55.734375q0 -27.734375 10.390625 -48.0q10.40625 -20.265625 27.46875 -33.328125q17.0625 -13.078125 37.328125 -19.46875q20.265625 -6.40625 40.0 -6.40625q33.078125 0 56.531265 16.0q23.46875 16.0 36.0 41.0625q12.546875 25.0625 12.546875 52.796875q0 33.609375 -16.0 58.40625q-16.0 24.796875 -41.875015 38.140625q-25.859375 13.328125 -56.796875 13.328125zm15.46875 -10.140625q26.125 0 40.796875 -20.53125q14.67189 -20.53125 14.67189 -62.671875q0 -35.71875 -10.67189 -61.578125q-10.671875 -25.875 -28.546875 -40.0q-17.859375 -14.140625 -40.25 -14.140625q-26.140625 0 -40.28125 20.0q-14.125 20.0 -14.125 58.921875q0 33.609375 10.125 61.078125q10.140625 27.453125 27.734375 43.1875q17.609375 15.734375 40.546875 15.734375zm-77.875 -252.79688q-2.125 0 -3.203125 -4.265625q-1.0625 -4.265625 0 -8.265625q1.078125 -4.0 3.203125 -4.0l133.87502 0q2.65625 0 3.71875 4.0q1.078125 4.0 0 8.265625q-1.0625 4.265625 -3.71875 4.265625l-133.87502 0z" fill-rule="nonzero"/></g></svg>